<?xml version="1.0" encoding="UTF-8" standalone="no"?>
<!DOCTYPE svg PUBLIC "-//W3C//DTD SVG 1.1//EN"
 "http://www.w3.org/Graphics/SVG/1.1/DTD/svg11.dtd">
<!-- Generated by graphviz version 7.0.5 (20221223.1930)
 -->
<!-- Title: snakemake_dag Pages: 1 -->
<svg width="582pt" height="692pt"
 viewBox="0.00 0.00 581.50 692.00" xmlns="http://www.w3.org/2000/svg" xmlns:xlink="http://www.w3.org/1999/xlink">
<g id="graph0" class="graph" transform="scale(1 1) rotate(0) translate(4 688)">
<title>snakemake_dag</title>
<polygon fill="white" stroke="none" points="-4,4 -4,-688 577.5,-688 577.5,4 -4,4"/>
<!-- 0 -->
<g id="node1" class="node">
<title>0</title>
<polygon fill="#fcf3cf" stroke="black" stroke-width="2" points="286.5,-36 209.5,-36 209.5,0 286.5,0 286.5,-36"/>
<text text-anchor="middle" x="248" y="-15.5" font-family="sans" font-size="10.00">pipeline</text>
</g>
<!-- 1 -->
<g id="node2" class="node">
<title>1</title>
<polygon fill="#fcf3cf" stroke="black" stroke-width="2" points="326.5,-108 257.5,-108 257.5,-72 326.5,-72 326.5,-108"/>
<text text-anchor="middle" x="292" y="-87.5" font-family="sans" font-size="10.00">multiqc</text>
</g>
<!-- 1&#45;&gt;0 -->
<g id="edge4" class="edge">
<title>1&#45;&gt;0</title>
<path fill="none" stroke="black" stroke-width="2" d="M280.9,-71.34C276.4,-64.18 271.09,-55.73 266.06,-47.73"/>
<polygon fill="black" stroke="black" stroke-width="2" points="269.15,-46.07 260.86,-39.46 263.22,-49.79 269.15,-46.07"/>
</g>
<!-- 2 -->
<g id="node3" class="node">
<title>2</title>
<polygon fill="#fcf3cf" stroke="black" stroke-width="2" points="448,-180 386,-180 386,-144 448,-144 448,-180"/>
<text text-anchor="middle" x="417" y="-159.5" font-family="sans" font-size="10.00">fastqc</text>
</g>
<!-- 2&#45;&gt;1 -->
<g id="edge7" class="edge">
<title>2&#45;&gt;1</title>
<path fill="none" stroke="black" stroke-width="2" d="M385.13,-143.15C369.85,-134.6 351.33,-124.22 334.84,-114.99"/>
<polygon fill="black" stroke="black" stroke-width="2" points="336.88,-112.12 326.45,-110.29 333.46,-118.23 336.88,-112.12"/>
</g>
<!-- 3 -->
<g id="node4" class="node">
<title>3</title>
<polygon fill="#fcf3cf" stroke="black" stroke-width="2" points="177,-396 123,-396 123,-360 177,-360 177,-396"/>
<text text-anchor="middle" x="150" y="-375.5" font-family="sans" font-size="10.00">qc3c</text>
</g>
<!-- 3&#45;&gt;1 -->
<g id="edge9" class="edge">
<title>3&#45;&gt;1</title>
<path fill="none" stroke="black" stroke-width="2" d="M141.25,-359.05C121.11,-314.89 77.66,-200.45 138,-144 172.78,-111.47 195.91,-123.12 244.36,-108.86"/>
<polygon fill="black" stroke="black" stroke-width="2" points="245.22,-112.26 253.64,-105.83 243.05,-105.61 245.22,-112.26"/>
</g>
<!-- 4 -->
<g id="node5" class="node">
<title>4</title>
<polygon fill="#fcf3cf" stroke="black" stroke-width="2" points="203.5,-468 96.5,-468 96.5,-432 203.5,-432 203.5,-468"/>
<text text-anchor="middle" x="150" y="-447.5" font-family="sans" font-size="10.00">sort_by_name</text>
</g>
<!-- 4&#45;&gt;3 -->
<g id="edge11" class="edge">
<title>4&#45;&gt;3</title>
<path fill="none" stroke="black" stroke-width="2" d="M150,-431.34C150,-424.75 150,-417.08 150,-409.67"/>
<polygon fill="black" stroke="black" stroke-width="2" points="153.5,-409.93 150,-399.93 146.5,-409.93 153.5,-409.93"/>
</g>
<!-- 10 -->
<g id="node11" class="node">
<title>10</title>
<polygon fill="#fcf3cf" stroke="black" stroke-width="2" points="292,-396 208,-396 208,-360 292,-360 292,-396"/>
<text text-anchor="middle" x="250" y="-375.5" font-family="sans" font-size="10.00">pairtools</text>
</g>
<!-- 4&#45;&gt;10 -->
<g id="edge19" class="edge">
<title>4&#45;&gt;10</title>
<path fill="none" stroke="black" stroke-width="2" d="M175.49,-431.15C187.25,-422.93 201.4,-413.02 214.2,-404.06"/>
<polygon fill="black" stroke="black" stroke-width="2" points="215.89,-407.15 222.07,-398.55 211.87,-401.42 215.89,-407.15"/>
</g>
<!-- 18 -->
<g id="node18" class="node">
<title>18</title>
<polygon fill="#fcf3cf" stroke="black" stroke-width="2" points="62,-324 0,-324 0,-288 62,-288 62,-324"/>
<text text-anchor="middle" x="31" y="-303.5" font-family="sans" font-size="10.00">hic_qc</text>
</g>
<!-- 4&#45;&gt;18 -->
<g id="edge28" class="edge">
<title>4&#45;&gt;18</title>
<path fill="none" stroke="black" stroke-width="2" d="M134.93,-431.02C114.54,-406.69 77.99,-363.07 54.12,-334.58"/>
<polygon fill="black" stroke="black" stroke-width="2" points="57,-332.57 47.89,-327.16 51.63,-337.07 57,-332.57"/>
</g>
<!-- 5 -->
<g id="node6" class="node">
<title>5</title>
<polygon fill="#fcf3cf" stroke="black" stroke-width="2" points="177,-540 123,-540 123,-504 177,-504 177,-540"/>
<text text-anchor="middle" x="150" y="-519.5" font-family="sans" font-size="10.00">bwa</text>
</g>
<!-- 5&#45;&gt;4 -->
<g id="edge13" class="edge">
<title>5&#45;&gt;4</title>
<path fill="none" stroke="black" stroke-width="2" d="M150,-503.34C150,-496.75 150,-489.08 150,-481.67"/>
<polygon fill="black" stroke="black" stroke-width="2" points="153.5,-481.93 150,-471.93 146.5,-481.93 153.5,-481.93"/>
</g>
<!-- 6 -->
<g id="node7" class="node">
<title>6</title>
<polygon fill="#fcf3cf" stroke="black" stroke-width="2" points="233,-612 149,-612 149,-576 233,-576 233,-612"/>
<text text-anchor="middle" x="191" y="-591.5" font-family="sans" font-size="10.00">bwa_index</text>
</g>
<!-- 6&#45;&gt;5 -->
<g id="edge14" class="edge">
<title>6&#45;&gt;5</title>
<path fill="none" stroke="black" stroke-width="2" d="M180.65,-575.34C176.51,-568.26 171.63,-559.92 166.99,-552"/>
<polygon fill="black" stroke="black" stroke-width="2" points="170.09,-550.37 162.02,-543.51 164.05,-553.91 170.09,-550.37"/>
</g>
<!-- 7 -->
<g id="node8" class="node">
<title>7</title>
<polygon fill="#fcf3cf" stroke="black" stroke-width="2" points="322,-684 200,-684 200,-648 322,-648 322,-684"/>
<text text-anchor="middle" x="261" y="-663.5" font-family="sans" font-size="10.00">copy_reference</text>
</g>
<!-- 7&#45;&gt;3 -->
<g id="edge12" class="edge">
<title>7&#45;&gt;3</title>
<path fill="none" stroke="black" stroke-width="2" d="M261.06,-647.25C260.42,-606.34 254.39,-503.46 212,-432 205.85,-421.62 196.92,-412.29 187.75,-404.44"/>
<polygon fill="black" stroke="black" stroke-width="2" points="190.2,-401.92 180.2,-398.43 185.84,-407.39 190.2,-401.92"/>
</g>
<!-- 7&#45;&gt;5 -->
<g id="edge15" class="edge">
<title>7&#45;&gt;5</title>
<path fill="none" stroke="black" stroke-width="2" d="M199.07,-652.8C176.55,-645.05 153.36,-632.44 140,-612 128.72,-594.74 131.81,-571.48 137.41,-553.07"/>
<polygon fill="black" stroke="black" stroke-width="2" points="140.65,-554.4 140.65,-543.81 134.04,-552.09 140.65,-554.4"/>
</g>
<!-- 7&#45;&gt;6 -->
<g id="edge16" class="edge">
<title>7&#45;&gt;6</title>
<path fill="none" stroke="black" stroke-width="2" d="M243.34,-647.34C235.69,-639.69 226.56,-630.56 218.08,-622.08"/>
<polygon fill="black" stroke="black" stroke-width="2" points="220.59,-619.64 211.04,-615.04 215.64,-624.59 220.59,-619.64"/>
</g>
<!-- 11 -->
<g id="node12" class="node">
<title>11</title>
<polygon fill="#fcf3cf" stroke="black" stroke-width="2" points="381,-468 289,-468 289,-432 381,-432 381,-468"/>
<text text-anchor="middle" x="335" y="-447.5" font-family="sans" font-size="10.00">chrom_size</text>
</g>
<!-- 7&#45;&gt;11 -->
<g id="edge21" class="edge">
<title>7&#45;&gt;11</title>
<path fill="none" stroke="black" stroke-width="2" d="M267.18,-647.12C279.86,-610.46 308.92,-526.41 324.57,-481.16"/>
<polygon fill="black" stroke="black" stroke-width="2" points="327.83,-482.43 327.79,-471.84 321.22,-480.14 327.83,-482.43"/>
</g>
<!-- 14 -->
<g id="node15" class="node">
<title>14</title>
<polygon fill="#fcf3cf" stroke="black" stroke-width="2" points="573.5,-180 466.5,-180 466.5,-144 573.5,-144 573.5,-180"/>
<text text-anchor="middle" x="520" y="-159.5" font-family="sans" font-size="10.00">cooler_cload</text>
</g>
<!-- 7&#45;&gt;14 -->
<g id="edge26" class="edge">
<title>7&#45;&gt;14</title>
<path fill="none" stroke="black" stroke-width="2" d="M322.81,-657.63C398,-644.82 515,-610.78 515,-523 515,-523 515,-523 515,-305 515,-266.63 516.85,-222.46 518.29,-193.71"/>
<polygon fill="black" stroke="black" stroke-width="2" points="521.78,-194.12 518.81,-183.95 514.79,-193.75 521.78,-194.12"/>
</g>
<!-- 8 -->
<g id="node9" class="node">
<title>8</title>
<polygon fill="#fcf3cf" stroke="black" stroke-width="2" points="330,-180 156,-180 156,-144 330,-144 330,-180"/>
<text text-anchor="middle" x="243" y="-159.5" font-family="sans" font-size="10.00">pairtools_dedup_stats</text>
</g>
<!-- 8&#45;&gt;1 -->
<g id="edge6" class="edge">
<title>8&#45;&gt;1</title>
<path fill="none" stroke="black" stroke-width="2" d="M255.36,-143.34C260.43,-136.1 266.43,-127.53 272.08,-119.45"/>
<polygon fill="black" stroke="black" stroke-width="2" points="274.87,-121.58 277.73,-111.38 269.13,-117.57 274.87,-121.58"/>
</g>
<!-- 9 -->
<g id="node10" class="node">
<title>9</title>
<polygon fill="#fcf3cf" stroke="black" stroke-width="2" points="340.5,-324 211.5,-324 211.5,-288 340.5,-288 340.5,-324"/>
<text text-anchor="middle" x="276" y="-303.5" font-family="sans" font-size="10.00">pairtools_dedup</text>
</g>
<!-- 9&#45;&gt;8 -->
<g id="edge17" class="edge">
<title>9&#45;&gt;8</title>
<path fill="none" stroke="black" stroke-width="2" d="M272.12,-287.25C268.16,-269.27 261.8,-240.67 256,-216 254.27,-208.62 252.35,-200.68 250.53,-193.25"/>
<polygon fill="black" stroke="black" stroke-width="2" points="253.94,-192.46 248.14,-183.59 247.14,-194.13 253.94,-192.46"/>
</g>
<!-- 13 -->
<g id="node14" class="node">
<title>13</title>
<polygon fill="#fcf3cf" stroke="black" stroke-width="2" points="433.5,-252 304.5,-252 304.5,-216 433.5,-216 433.5,-252"/>
<text text-anchor="middle" x="369" y="-231.5" font-family="sans" font-size="10.00">pairtools_split</text>
</g>
<!-- 9&#45;&gt;13 -->
<g id="edge23" class="edge">
<title>9&#45;&gt;13</title>
<path fill="none" stroke="black" stroke-width="2" d="M299.47,-287.34C310.18,-279.27 323.07,-269.57 334.83,-260.72"/>
<polygon fill="black" stroke="black" stroke-width="2" points="336.91,-263.53 342.8,-254.72 332.7,-257.94 336.91,-263.53"/>
</g>
<!-- 10&#45;&gt;9 -->
<g id="edge18" class="edge">
<title>10&#45;&gt;9</title>
<path fill="none" stroke="black" stroke-width="2" d="M256.56,-359.34C259.07,-352.59 262,-344.69 264.82,-337.11"/>
<polygon fill="black" stroke="black" stroke-width="2" points="268.1,-338.33 268.3,-327.74 261.53,-335.9 268.1,-338.33"/>
</g>
<!-- 12 -->
<g id="node13" class="node">
<title>12</title>
<polygon fill="#fcf3cf" stroke="black" stroke-width="2" points="247.5,-252 118.5,-252 118.5,-216 247.5,-216 247.5,-252"/>
<text text-anchor="middle" x="183" y="-231.5" font-family="sans" font-size="10.00">pairtools_stats</text>
</g>
<!-- 10&#45;&gt;12 -->
<g id="edge22" class="edge">
<title>10&#45;&gt;12</title>
<path fill="none" stroke="black" stroke-width="2" d="M229.5,-359.25C219.76,-349.73 208.79,-337.26 202,-324 192.75,-305.93 188,-283.59 185.56,-265.81"/>
<polygon fill="black" stroke="black" stroke-width="2" points="189.05,-265.51 184.43,-255.98 182.1,-266.31 189.05,-265.51"/>
</g>
<!-- 11&#45;&gt;10 -->
<g id="edge20" class="edge">
<title>11&#45;&gt;10</title>
<path fill="none" stroke="black" stroke-width="2" d="M313.55,-431.34C303.86,-423.36 292.22,-413.77 281.56,-404.99"/>
<polygon fill="black" stroke="black" stroke-width="2" points="284.02,-402.48 274.07,-398.83 279.57,-407.88 284.02,-402.48"/>
</g>
<!-- 11&#45;&gt;14 -->
<g id="edge25" class="edge">
<title>11&#45;&gt;14</title>
<path fill="none" stroke="black" stroke-width="2" d="M346.57,-431.11C377.72,-382.96 463.53,-250.3 501.5,-191.59"/>
<polygon fill="black" stroke="black" stroke-width="2" points="504.3,-193.72 506.79,-183.43 498.42,-189.92 504.3,-193.72"/>
</g>
<!-- 12&#45;&gt;1 -->
<g id="edge5" class="edge">
<title>12&#45;&gt;1</title>
<path fill="none" stroke="black" stroke-width="2" d="M166,-215.09C150.22,-196.21 131.34,-166.2 147,-144 172.32,-108.1 198.82,-121.89 244.84,-108.63"/>
<polygon fill="black" stroke="black" stroke-width="2" points="245.69,-112.04 254.09,-105.58 243.5,-105.39 245.69,-112.04"/>
</g>
<!-- 13&#45;&gt;1 -->
<g id="edge10" class="edge">
<title>13&#45;&gt;1</title>
<path fill="none" stroke="black" stroke-width="2" d="M365.19,-215.06C360.74,-196.42 352.25,-166.85 339,-144 333.71,-134.87 326.69,-125.91 319.69,-118.03"/>
<polygon fill="black" stroke="black" stroke-width="2" points="322.42,-115.82 313.03,-110.9 317.3,-120.6 322.42,-115.82"/>
</g>
<!-- 13&#45;&gt;14 -->
<g id="edge24" class="edge">
<title>13&#45;&gt;14</title>
<path fill="none" stroke="black" stroke-width="2" d="M407.49,-215.15C426.41,-206.38 449.45,-195.71 469.74,-186.3"/>
<polygon fill="black" stroke="black" stroke-width="2" points="470.97,-189.59 478.57,-182.21 468.02,-183.24 470.97,-189.59"/>
</g>
<!-- 14&#45;&gt;1 -->
<g id="edge8" class="edge">
<title>14&#45;&gt;1</title>
<path fill="none" stroke="black" stroke-width="2" d="M465.68,-144.32C427.39,-132.57 376.58,-116.97 339.82,-105.68"/>
<polygon fill="black" stroke="black" stroke-width="2" points="340.93,-102.36 330.34,-102.77 338.88,-109.05 340.93,-102.36"/>
</g>
<!-- 17 -->
<g id="node17" class="node">
<title>17</title>
<polygon fill="#fcf3cf" stroke="black" stroke-width="2" points="497,-108 443,-108 443,-72 497,-72 497,-108"/>
<text text-anchor="middle" x="470" y="-87.5" font-family="sans" font-size="10.00">viz</text>
</g>
<!-- 14&#45;&gt;17 -->
<g id="edge27" class="edge">
<title>14&#45;&gt;17</title>
<path fill="none" stroke="black" stroke-width="2" d="M507.38,-143.34C502.21,-136.1 496.09,-127.53 490.32,-119.45"/>
<polygon fill="black" stroke="black" stroke-width="2" points="493.21,-117.47 484.55,-111.37 487.51,-121.54 493.21,-117.47"/>
</g>
<!-- 15 -->
<g id="node16" class="node">
<title>15</title>
<polygon fill="#fcf3cf" stroke="black" stroke-width="2" points="239.5,-108 170.5,-108 170.5,-72 239.5,-72 239.5,-108"/>
<text text-anchor="middle" x="205" y="-87.5" font-family="sans" font-size="10.00">dot2svg</text>
</g>
<!-- 15&#45;&gt;0 -->
<g id="edge2" class="edge">
<title>15&#45;&gt;0</title>
<path fill="none" stroke="black" stroke-width="2" d="M215.85,-71.34C220.25,-64.18 225.44,-55.73 230.35,-47.73"/>
<polygon fill="black" stroke="black" stroke-width="2" points="233.17,-49.83 235.42,-39.48 227.2,-46.17 233.17,-49.83"/>
</g>
<!-- 17&#45;&gt;0 -->
<g id="edge3" class="edge">
<title>17&#45;&gt;0</title>
<path fill="none" stroke="black" stroke-width="2" d="M442.33,-80.28C406.71,-69.04 344.11,-49.3 299.58,-35.27"/>
<polygon fill="black" stroke="black" stroke-width="2" points="300.73,-31.96 290.14,-32.29 298.63,-38.63 300.73,-31.96"/>
</g>
<!-- 18&#45;&gt;0 -->
<g id="edge1" class="edge">
<title>18&#45;&gt;0</title>
<path fill="none" stroke="black" stroke-width="2" d="M36.71,-287.15C51.12,-244.67 92.72,-136.31 161,-72 172.57,-61.11 186.73,-51.33 200.24,-43.23"/>
<polygon fill="black" stroke="black" stroke-width="2" points="201.82,-46.36 208.75,-38.34 198.33,-40.29 201.82,-46.36"/>
</g>
</g>
</svg>
